<svg xmlns="http://www.w3.org/2000/svg" width="36" height="36" viewBox="0 0 36 36" fill="none">
  <path d="M35.6284 14.4451L30.3145 19.759L35.6284 25.0762L34.4083 19.759L35.6284 14.4451Z" fill="#2CD1CC"/>
  <path d="M30.5824 28.0053C30.2799 28.0255 30.0043 28.16 29.806 28.3887C27.0297 31.5468 23.1913 33.4369 19 33.706C14.8019 33.9751 10.7618 32.5961 7.6057 29.8181C4.44959 27.0401 2.56399 23.2026 2.2951 19.0087C2.02621 14.8148 3.40427 10.7654 6.17721 7.60735C8.95351 4.44928 12.7886 2.56251 16.9799 2.29345C21.1712 2.02439 25.2181 3.40332 28.3742 6.18134C28.8414 6.59166 29.5573 6.54457 29.9707 6.07708C30.3808 5.60623 30.3337 4.88986 29.8665 4.48291C26.2567 1.30803 21.6351 -0.272691 16.8354 0.0367261C6.93683 0.675739 -0.598842 9.24861 0.0364132 19.1533C0.64814 28.6679 8.57706 35.9997 17.9748 35.9997C18.3613 35.9997 18.7512 35.9863 19.1411 35.9627C23.9375 35.6533 28.3271 33.4941 31.5 29.882C31.6983 29.6567 31.7992 29.3641 31.779 29.0648C31.7588 28.7621 31.6244 28.4863 31.3992 28.2878C31.174 28.0894 30.8782 27.9919 30.5824 28.0087" fill="#2FB36D"/>
  <path d="M26.9562 12.8576C27.2822 13.389 27.9813 13.5538 28.5124 13.2276C29.0434 12.9013 29.2081 12.2018 28.8821 11.6704C27.0805 8.7444 24.2471 6.69619 20.9061 5.90247C14.0057 4.26457 7.06495 8.54597 5.42808 15.4473C3.79121 22.3487 8.06993 29.2971 14.967 30.935C15.9619 31.1704 16.9669 31.2881 17.9618 31.2881C20.3179 31.2881 22.6304 30.6357 24.684 29.3677C24.9428 29.2096 25.121 28.9608 25.1916 28.6682C25.2622 28.3756 25.2117 28.0695 25.0538 27.8139C24.8958 27.5583 24.6471 27.3767 24.3513 27.3061C24.0589 27.2388 23.753 27.2859 23.4976 27.4439C21.0876 28.9305 18.2407 29.3913 15.4846 28.7354C12.7318 28.0796 10.3958 26.3913 8.91022 23.9798C7.4246 21.5684 6.96748 18.7197 7.6229 15.9652C8.27832 13.2108 9.96562 10.8733 12.3756 9.38677C14.7855 7.90023 17.629 7.44283 20.3851 8.09866C23.1379 8.75449 25.4739 10.4428 26.9595 12.8543" fill="#2FB36D"/>
  <path d="M16.0524 13.1435C17.4305 12.6558 18.9128 12.7365 20.2303 13.3655C21.5479 13.9944 22.5428 15.1009 23.0302 16.4798C23.131 16.7657 23.336 16.9944 23.6083 17.1222C23.8805 17.2534 24.1864 17.2668 24.4721 17.1659C24.7578 17.065 24.9863 16.8599 25.1141 16.5874C25.2451 16.315 25.2586 16.009 25.1578 15.7231C24.4687 13.7758 23.0671 12.2152 21.2017 11.324C17.3566 9.48767 12.735 11.1222 10.8998 14.9697C9.06463 18.8173 10.6981 23.4417 14.5433 25.278C15.5987 25.7825 16.7314 26.0381 17.8675 26.0381C18.738 26.0381 19.6119 25.8868 20.4589 25.5874C20.7446 25.4865 20.9731 25.2814 21.1009 25.009C21.232 24.7365 21.2454 24.4305 21.1446 24.1446C21.0437 23.8587 20.8387 23.6334 20.5664 23.5022C20.2942 23.3711 19.9883 23.3576 19.7026 23.4585C18.3212 23.9496 16.8356 23.8722 15.5147 23.2399C14.1971 22.611 13.2022 21.5045 12.7148 20.1256C12.2275 18.7466 12.3081 17.2635 12.9367 15.9451C13.5652 14.6267 14.671 13.6312 16.0491 13.1435" fill="#2FB36D"/>
</svg>