<svg xmlns="http://www.w3.org/2000/svg" width="164" height="36" viewBox="0 0 164 36" fill="none"><path d="M141.837 4.21076C143.329 4.21076 144.57 5.45179 144.57 6.94507C144.57 8.43834 143.329 9.67937 141.8 9.67937C140.271 9.67937 139.067 8.4417 139.067 6.94507C139.067 5.44843 140.304 4.21076 141.834 4.21076" fill="#0B2958"></path><path d="M70.1302 29.3206C67.9455 30.5953 65.1053 31.2141 62.4097 31.2141C54.1446 31.2141 48.3164 25.3823 48.3164 17.6939C48.3164 10.0056 53.9967 4.02579 62.376 4.02579C65.0717 4.02579 67.6564 4.68161 69.7336 5.77466V10.5841C67.8043 9.19843 65.1087 8.21637 62.376 8.21637C56.8033 8.21637 52.9447 12.2623 52.9447 17.62C52.9447 22.9776 56.7697 26.9865 62.6315 26.9865C65.438 26.9865 68.0228 26.0381 70.1336 24.4339V29.3173L70.1302 29.3206Z" fill="#0B2958"></path><path d="M76.9535 23.0516C77.498 26.0381 79.8676 27.5684 82.8893 27.5684C85.1479 27.5684 87.2587 26.7309 89.0065 25.4899V29.5359C87.3327 30.5919 84.7816 31.2108 82.4489 31.2108C76.6947 31.2108 72.4697 27.4944 72.4697 21.8812C72.4697 16.2679 76.7316 12.4776 81.612 12.4776C86.0554 12.4776 89.988 15.5011 89.988 21.259C89.988 21.8408 89.951 22.5706 89.8804 23.0448H76.9501L76.9535 23.0516ZM85.8773 19.991C85.5479 17.2937 83.5817 16.0561 81.5784 16.0561C79.5752 16.0561 77.498 17.2937 76.9535 19.991H85.8773Z" fill="#0B2958"></path><path d="M92.7568 12.8845H97.1263V15.4002L97.2003 15.4372C98.4372 13.6883 100.296 12.7029 102.41 12.7029C102.81 12.7029 103.21 12.7399 103.613 12.8475V17.0751C103.176 16.9641 102.739 16.8935 102.158 16.8935C100.081 16.8935 98.4069 17.8049 97.1666 19.5538V30.8139H92.7602V12.8845H92.7568Z" fill="#0B2958"></path><path d="M118.638 30.3767C117.838 30.8509 116.379 31.2141 114.995 31.2141C113.428 31.2141 111.754 30.7399 110.625 29.4652C109.714 28.4798 109.17 26.9865 109.17 24.3262V16.6345H106.037V12.8812H109.17V8.10874L113.576 7.34529V12.8845H118.638V16.6379H113.576V23.7074C113.576 25.7119 113.939 27.3868 115.942 27.3868C116.89 27.3868 117.909 27.0235 118.638 26.62V30.3733V30.3767Z" fill="#0B2958"></path><path d="M144.022 12.8845H139.615V30.8139H144.022V12.8845Z" fill="#0B2958"></path><path d="M136.274 31.1401L136.237 25.8195V18.9316C136.237 16.7085 135.544 15.1783 134.341 14.1558C132.993 13.0258 130.916 12.4809 128.587 12.4809C126.036 12.4809 123.962 13.1368 122.54 13.9372V17.9462C123.925 17.0717 125.78 16.3419 127.931 16.3419C129.279 16.3419 130.298 16.6345 130.953 17.2164C131.535 17.7646 131.827 18.565 131.827 19.6581V20.7141C130.735 20.4585 129.605 20.3139 128.368 20.3139C126.51 20.3139 124.691 20.6401 123.344 21.5516C121.996 22.463 121.048 23.9193 121.048 25.8901C121.048 27.676 121.811 29.0987 123.051 30.0101C124.254 30.8845 125.747 31.2108 127.202 31.2108C129.568 31.2108 131.427 30.3733 132.519 29.4989H132.563V31.1872H136.22V31.1368C136.237 31.1368 136.254 31.1368 136.27 31.1368M131.827 26.6166C130.953 27.2354 129.642 27.7096 128.294 27.7096C126.728 27.7096 125.454 27.0168 125.454 25.5605C125.454 23.8117 127.239 23.2298 129.061 23.2298C129.935 23.2298 131.027 23.3744 131.83 23.593V26.6166H131.827Z" fill="#0B2958"></path><path d="M147.393 12.8845H151.762V14.815L151.836 14.852C153.328 13.5034 155.369 12.4843 157.735 12.4843C159.664 12.4843 161.341 13.1401 162.471 14.3812C163.526 15.5112 164 17.0045 164 19.6648V30.8173H159.594V20.4316C159.594 18.8274 159.375 17.9529 158.864 17.3711C158.32 16.7152 157.516 16.3856 156.498 16.3856C154.75 16.3856 152.928 17.4047 151.799 18.6457V30.8173H147.393V12.8879V12.8845Z" fill="#0B2958"></path><path d="M35.6284 14.4451L30.3145 19.759L35.6284 25.0762L34.4083 19.759L35.6284 14.4451Z" fill="#2CD1CC"></path><path d="M30.5824 28.0053C30.2799 28.0255 30.0043 28.16 29.806 28.3887C27.0297 31.5468 23.1913 33.4369 19 33.706C14.8019 33.9751 10.7618 32.5961 7.6057 29.8181C4.44959 27.0401 2.56399 23.2026 2.2951 19.0087C2.02621 14.8148 3.40427 10.7654 6.17721 7.60735C8.95351 4.44928 12.7886 2.56251 16.9799 2.29345C21.1712 2.02439 25.2181 3.40332 28.3742 6.18134C28.8414 6.59166 29.5573 6.54457 29.9707 6.07708C30.3808 5.60623 30.3337 4.88986 29.8665 4.48291C26.2567 1.30803 21.6351 -0.272691 16.8354 0.0367261C6.93683 0.675739 -0.598842 9.24861 0.0364132 19.1533C0.64814 28.6679 8.57706 35.9997 17.9748 35.9997C18.3613 35.9997 18.7512 35.9863 19.1411 35.9627C23.9375 35.6533 28.3271 33.4941 31.5 29.882C31.6983 29.6567 31.7992 29.3641 31.779 29.0648C31.7588 28.7621 31.6244 28.4863 31.3992 28.2878C31.174 28.0894 30.8782 27.9919 30.5824 28.0087" fill="#2FB36D"></path><path d="M26.9562 12.8576C27.2822 13.389 27.9813 13.5538 28.5124 13.2276C29.0434 12.9013 29.2081 12.2018 28.8821 11.6704C27.0805 8.7444 24.2471 6.69619 20.9061 5.90247C14.0057 4.26457 7.06495 8.54597 5.42808 15.4473C3.79121 22.3487 8.06993 29.2971 14.967 30.935C15.9619 31.1704 16.9669 31.2881 17.9618 31.2881C20.3179 31.2881 22.6304 30.6357 24.684 29.3677C24.9428 29.2096 25.121 28.9608 25.1916 28.6682C25.2622 28.3756 25.2117 28.0695 25.0538 27.8139C24.8958 27.5583 24.6471 27.3767 24.3513 27.3061C24.0589 27.2388 23.753 27.2859 23.4976 27.4439C21.0876 28.9305 18.2407 29.3913 15.4846 28.7354C12.7318 28.0796 10.3958 26.3913 8.91022 23.9798C7.4246 21.5684 6.96748 18.7197 7.6229 15.9652C8.27832 13.2108 9.96562 10.8733 12.3756 9.38677C14.7855 7.90023 17.629 7.44283 20.3851 8.09866C23.1379 8.75449 25.4739 10.4428 26.9595 12.8543" fill="#2FB36D"></path><path d="M16.0524 13.1435C17.4305 12.6558 18.9128 12.7365 20.2303 13.3655C21.5479 13.9944 22.5428 15.1009 23.0302 16.4798C23.131 16.7657 23.336 16.9944 23.6083 17.1222C23.8805 17.2534 24.1864 17.2668 24.4721 17.1659C24.7578 17.065 24.9863 16.8599 25.1141 16.5874C25.2451 16.315 25.2586 16.009 25.1578 15.7231C24.4687 13.7758 23.0671 12.2152 21.2017 11.324C17.3566 9.48767 12.735 11.1222 10.8998 14.9697C9.06463 18.8173 10.6981 23.4417 14.5433 25.278C15.5987 25.7825 16.7314 26.0381 17.8675 26.0381C18.738 26.0381 19.6119 25.8868 20.4589 25.5874C20.7446 25.4865 20.9731 25.2814 21.1009 25.009C21.232 24.7365 21.2454 24.4305 21.1446 24.1446C21.0437 23.8587 20.8387 23.6334 20.5664 23.5022C20.2942 23.3711 19.9883 23.3576 19.7026 23.4585C18.3212 23.9496 16.8356 23.8722 15.5147 23.2399C14.1971 22.611 13.2022 21.5045 12.7148 20.1256C12.2275 18.7466 12.3081 17.2635 12.9367 15.9451C13.5652 14.6267 14.671 13.6312 16.0491 13.1435" fill="#2FB36D"></path></svg>